<svg version="1.0" xmlns="http://www.w3.org/2000/svg"
 width="1539.000000pt" height="818.000000pt" viewBox="0 0 1539.000000 818.000000"
 preserveAspectRatio="xMidYMid meet">

<g transform="translate(0.000000,818.000000) scale(0.100000,-0.100000)"
fill="#000000" stroke="none">
<path d="M0 4090 l0 -4090 7695 0 7695 0 0 4090 0 4090 -7695 0 -7695 0 0
-4090z m5618 3696 c1196 -513 1605 -686 1609 -682 2 2 -15 18 -39 37 -57 43
-68 58 -67 88 1 44 130 294 159 308 18 9 105 13 315 13 254 0 294 -2 314 -16
26 -19 151 -273 151 -308 0 -27 -13 -43 -68 -85 -24 -19 -41 -35 -39 -38 3 -2
319 131 703 295 385 165 837 359 1007 431 l307 131 328 -70 c180 -39 339 -75
355 -82 56 -22 48 -94 -15 -131 -24 -13 -155 -94 -293 -179 -137 -85 -377
-233 -533 -329 l-282 -174 362 -5 363 -5 200 -129 c110 -71 230 -148 267 -172
75 -48 91 -78 64 -119 -9 -14 -26 -27 -39 -30 -12 -3 -74 -17 -137 -31 -1706
-375 -2117 -464 -2144 -464 -26 0 -51 20 -169 137 l-138 136 -143 -429 -144
-429 -11 -180 c-7 -99 -27 -394 -46 -655 -19 -261 -46 -637 -60 -835 -14 -198
-34 -479 -45 -625 -11 -146 -26 -368 -35 -495 -8 -126 -18 -245 -21 -263 -11
-68 -91 -81 -119 -19 -9 21 -22 156 -39 407 -29 421 -81 1152 -126 1760 -16
223 -37 518 -46 655 l-17 250 -142 427 -142 427 -141 -134 c-118 -113 -145
-135 -171 -135 -17 0 -203 38 -413 85 -211 46 -662 145 -1003 220 -341 75
-678 149 -750 165 -99 22 -134 34 -147 50 -39 48 -22 73 109 156 59 37 178
113 263 168 l155 101 363 5 362 5 -287 177 c-159 98 -387 239 -508 314 -121
75 -251 155 -288 178 -42 25 -70 49 -73 64 -9 31 3 68 23 77 15 7 661 151 686
154 5 1 192 -77 415 -173z m-3913 -6735 c166 -59 272 -212 282 -406 11 -202
-79 -366 -245 -447 l-67 -33 -240 -3 c-219 -3 -240 -2 -252 14 -17 23 -17 128
0 142 7 6 101 12 227 14 196 3 219 5 255 25 95 50 140 135 140 264 0 75 -4 92
-30 144 -34 66 -87 111 -151 125 -21 5 -125 10 -231 10 -225 0 -223 -1 -223
90 0 92 1 92 260 87 189 -3 222 -6 275 -26z m1062 18 c76 -13 142 -54 190
-117 43 -56 56 -110 51 -203 -6 -98 -37 -155 -113 -205 l-54 -36 33 -52 c171
-265 168 -260 144 -284 -7 -7 -42 -12 -85 -12 -58 0 -76 4 -88 18 -9 10 -55
80 -104 157 l-88 140 -111 3 -112 3 0 -149 c0 -102 -4 -152 -12 -160 -15 -15
-122 -16 -149 -2 -18 10 -19 23 -19 233 0 160 3 226 12 235 9 9 72 12 218 12
113 1 225 5 250 9 122 24 138 179 24 227 -25 11 -89 14 -253 14 -255 0 -251
-2 -251 87 0 94 -2 93 243 93 116 0 239 -5 274 -11z m961 -6 c12 -10 55 -99
96 -198 41 -99 120 -286 175 -415 56 -129 101 -242 101 -250 0 -39 -11 -40
-456 -40 -487 0 -468 -3 -444 70 7 22 21 53 31 70 l19 30 295 0 c249 0 295 2
295 14 0 12 -71 186 -177 436 l-15 34 -13 -24 c-7 -14 -46 -104 -85 -200 -40
-96 -78 -178 -84 -182 -6 -4 -44 -8 -84 -8 -115 0 -116 -10 37 350 72 168 139
311 148 318 26 19 137 16 161 -5z m946 4 c14 -10 16 -25 14 -82 l-3 -70 -62
-30 c-72 -35 -116 -74 -146 -130 -32 -58 -32 -222 0 -280 29 -55 101 -119 149
-135 60 -19 64 -26 64 -100 0 -87 -11 -98 -83 -81 -106 23 -224 114 -281 216
-44 80 -59 155 -54 272 4 94 8 109 42 178 61 123 161 207 286 241 58 16 53 16
74 1z m263 -32 c85 -40 159 -109 197 -183 31 -61 30 -56 10 -76 -11 -11 -35
-16 -83 -16 -67 0 -67 0 -111 46 -25 27 -72 60 -110 78 l-65 31 -3 66 c-5 111
23 120 165 54z m857 32 c20 -15 30 -87 18 -131 -6 -22 -18 -32 -58 -47 -70
-26 -127 -78 -155 -141 -19 -43 -24 -70 -24 -138 0 -75 4 -91 30 -139 35 -64
83 -105 150 -129 55 -20 65 -40 61 -119 -5 -83 -44 -89 -172 -27 -269 129
-339 505 -136 735 54 61 111 99 191 126 79 27 73 26 95 10z m315 -57 c193
-123 263 -388 161 -608 -53 -115 -170 -212 -293 -243 -67 -16 -87 2 -87 81 0
67 10 81 74 105 65 24 110 65 143 133 23 48 28 70 28 137 0 67 -5 89 -28 137
-32 66 -81 111 -147 135 -60 22 -70 36 -70 104 0 47 4 61 21 73 18 13 28 12
84 -3 35 -10 86 -33 114 -51z m643 58 c8 -7 66 -83 128 -168 62 -85 150 -205
195 -266 45 -60 89 -120 96 -132 8 -12 17 -22 21 -22 5 0 8 130 8 290 0 276 1
290 19 300 30 15 113 12 139 -6 l22 -15 0 -429 c0 -376 -2 -430 -16 -444 -11
-12 -35 -16 -84 -16 -57 0 -73 4 -89 21 -10 11 -82 107 -159 212 -76 106 -210
289 -296 407 -91 125 -156 224 -156 237 0 12 8 27 18 32 24 15 135 13 154 -1z
m1602 -1 c27 -20 34 -108 12 -142 l-16 -25 -318 0 c-234 0 -321 3 -330 12 -18
18 -15 133 4 152 13 14 57 16 323 16 240 0 311 -3 325 -13z m426 -7 c19 -19
20 -33 20 -438 0 -490 6 -462 -95 -462 -101 0 -95 -28 -95 462 0 405 1 419 20
438 15 15 33 20 75 20 42 0 60 -5 75 -20z m776 12 c20 -14 184 -256 184 -273
0 -31 -25 -40 -106 -37 l-78 3 -88 124 c-89 125 -103 161 -70 180 20 12 142
14 158 3z m689 -9 c9 -9 15 -26 13 -37 -3 -12 -82 -132 -176 -268 l-172 -247
0 -169 c0 -117 -4 -172 -12 -180 -16 -16 -140 -16 -156 0 -9 9 -12 69 -12 210
l0 198 98 142 c220 319 245 353 256 360 6 4 41 8 78 8 49 0 71 -4 83 -17z
m1147 -7 c67 -25 140 -94 168 -158 33 -75 33 -193 2 -263 -63 -138 -182 -188
-437 -184 l-100 2 -3 -133 c-1 -78 -7 -139 -14 -147 -16 -19 -132 -17 -152 3
-14 13 -16 47 -16 217 0 111 5 209 10 217 8 12 50 16 242 20 223 5 234 6 265
28 53 37 65 128 26 190 -28 45 -66 52 -294 52 -251 0 -249 -1 -249 91 0 91 -1
91 275 86 186 -3 239 -7 277 -21z m589 14 c17 -10 19 -22 19 -148 0 -94 -4
-142 -12 -150 -7 -7 -39 -12 -74 -12 -91 0 -94 5 -94 156 0 111 2 126 20 144
22 22 106 28 141 10z m889 -18 c66 -26 130 -86 162 -151 18 -37 22 -63 22
-136 0 -110 -22 -163 -94 -228 -72 -65 -131 -80 -315 -83 l-150 -2 -3 -133
c-1 -77 -7 -138 -14 -146 -12 -15 -125 -18 -148 -3 -12 8 -16 45 -18 216 -3
183 -1 208 14 225 16 17 34 19 228 20 231 0 266 6 300 52 27 37 28 122 2 162
-32 49 -65 55 -300 55 -211 0 -215 0 -230 22 -24 34 -21 113 5 139 20 20 28
21 252 17 210 -4 237 -6 287 -26z m691 18 c16 -9 19 -22 19 -79 0 -75 -6 -85
-57 -95 -44 -10 -83 -49 -83 -84 0 -41 48 -64 228 -112 214 -56 275 -91 318
-185 58 -124 -1 -269 -135 -329 -72 -32 -154 -44 -176 -26 -19 16 -21 133 -2
148 6 5 28 13 47 17 54 11 90 33 101 63 25 67 -12 94 -197 142 -192 51 -248
75 -311 138 -57 58 -68 174 -23 261 17 35 108 120 128 121 4 1 30 7 57 15 63
17 62 17 86 5z m216 -15 c100 -30 183 -114 202 -206 17 -80 7 -90 -87 -87
l-76 3 -16 45 c-13 40 -22 48 -75 75 l-60 30 -3 63 c-4 95 14 107 115 77z
m-1796 -355 c18 -10 19 -24 19 -263 0 -184 -3 -256 -12 -265 -7 -7 -40 -12
-80 -12 -56 0 -69 3 -78 19 -6 12 -10 113 -10 257 0 278 -1 274 87 274 30 0
63 -5 74 -10z m-3677 -16 c19 -19 22 -134 4 -152 -9 -9 -73 -12 -225 -12
l-213 0 0 -168 c0 -117 -4 -172 -12 -180 -16 -16 -140 -16 -156 0 -9 9 -12 80
-12 260 0 225 2 248 18 257 10 6 126 11 299 11 243 0 284 -2 297 -16z m-3132
-6 c23 -19 27 -49 17 -133 -16 -148 -109 -284 -239 -349 -80 -40 -144 -54
-165 -36 -19 16 -21 143 -2 157 6 5 34 18 61 28 57 21 128 86 144 133 l11 32
-138 0 c-163 0 -166 2 -166 92 0 89 -2 88 250 88 154 0 215 -3 227 -12z m8231
-203 c8 -7 18 -30 21 -50 8 -40 43 -71 109 -95 l42 -15 3 -69 c4 -102 -9 -111
-120 -76 -117 36 -196 121 -217 234 -13 69 3 86 84 86 42 0 68 -5 78 -15z
m-6663 -15 c18 -18 20 -33 20 -144 0 -151 -3 -156 -94 -156 -35 0 -67 5 -74
12 -8 8 -12 56 -12 150 0 134 1 139 23 148 42 17 115 12 137 -10z m2488 -136
c18 -13 22 -25 22 -71 0 -91 -4 -93 -191 -93 -187 0 -189 1 -189 90 0 86 9 90
190 90 116 0 150 -3 168 -16z"/>
<path d="M4965 7773 c-115 -25 -214 -48 -218 -53 -5 -4 7 -16 25 -27 18 -11
119 -73 223 -138 105 -65 267 -165 360 -223 94 -58 217 -134 275 -170 58 -36
145 -89 193 -119 l88 -53 292 2 292 3 -50 29 c-27 16 -79 48 -115 72 -159 103
-562 362 -630 404 -41 26 -169 109 -284 184 -116 75 -217 136 -225 135 -9 0
-110 -21 -226 -46z"/>
<path d="M9705 7646 c-148 -96 -322 -208 -385 -249 -146 -95 -195 -125 -417
-267 -100 -63 -190 -120 -200 -127 -14 -9 45 -12 274 -12 l293 -1 152 94 c162
98 448 275 763 471 105 65 205 127 223 137 17 11 32 23 32 26 0 5 -327 78
-445 99 -13 2 -116 -58 -290 -171z"/>
<path d="M5975 7482 c6 -6 69 -47 140 -93 72 -45 204 -129 295 -187 91 -58
204 -129 251 -159 l87 -53 191 2 192 3 -208 89 c-114 49 -354 152 -533 228
-379 163 -428 183 -415 170z"/>
<path d="M8890 7355 c-173 -74 -433 -185 -578 -247 l-263 -113 191 -3 191 -2
87 53 c376 234 707 448 692 447 -3 0 -147 -61 -320 -135z"/>
<path d="M7305 7330 c-24 -49 -35 -83 -30 -89 29 -26 308 -231 315 -231 7 0
291 208 315 231 5 6 -6 39 -30 89 l-39 80 -246 0 -246 0 -39 -80z"/>
<path d="M4969 6852 c-35 -16 -339 -216 -339 -223 0 -5 7 -9 15 -9 8 0 106
-20 218 -45 516 -113 1803 -396 1816 -398 15 -2 710 664 704 676 -5 9 -2392 8
-2414 -1z"/>
<path d="M7798 6855 c-4 -5 414 -417 641 -631 l53 -50 167 37 c91 21 301 67
466 103 165 36 546 119 847 186 300 66 553 120 562 120 9 0 16 4 16 9 0 5 -75
57 -167 117 l-168 109 -1206 3 c-663 1 -1208 0 -1211 -3z"/>
<path d="M7326 6606 c-187 -180 -189 -183 -182 -217 7 -35 214 -676 247 -765
l20 -52 54 22 55 21 0 588 c0 323 -1 587 -2 587 -2 -1 -88 -83 -192 -184z"/>
<path d="M7660 6204 l0 -589 54 -21 55 -22 47 137 c27 75 90 264 141 421 l92
285 -117 115 c-65 63 -152 148 -195 189 l-77 74 0 -589z"/>
<path d="M7513 5471 c-35 -15 -65 -30 -68 -33 -5 -5 27 -472 95 -1403 17 -225
33 -459 37 -518 3 -59 9 -110 13 -112 3 -2 14 110 23 248 10 139 26 371 37
517 43 569 91 1263 88 1266 -9 8 -141 64 -151 63 -7 -1 -40 -13 -74 -28z"/>
</g>
</svg>
